<svg xmlns="http://www.w3.org/2000/svg" version="1.1" xmlns:xlink="http://www.w3.org/1999/xlink" xmlns:svgjs="http://svgjs.dev/svgjs" viewBox="0 0 1422 800"><circle r="10" cx="1389" cy="26" fill="hsl(106, 50%, 50%)" opacity="0.97"></circle><circle r="15" cx="472" cy="195" stroke-width="2" stroke="hsl(237, 50%, 50%)" fill="none" opacity="0.24"></circle><circle r="15.5" cx="823" cy="58" fill="hsl(271, 50%, 50%)" opacity="0.74"></circle><circle r="11.5" cx="928" cy="197" fill="hsl(195, 50%, 50%)" opacity="0.95"></circle><circle r="12" cx="872" cy="87" fill="hsl(245, 50%, 50%)" opacity="0.33"></circle><circle r="17" cx="664" cy="144" stroke-width="2" stroke="hsl(276, 50%, 50%)" fill="none" opacity="0.83"></circle><circle r="16" cx="529" cy="60" stroke-width="2" stroke="hsl(296, 50%, 50%)" fill="none" opacity="0.52"></circle><circle r="15" cx="390" cy="173" stroke-width="2" stroke="hsl(235, 50%, 50%)" fill="none" opacity="0.87"></circle><circle r="7.5" cx="1365" cy="458" stroke-width="2" stroke="hsl(70, 50%, 50%)" fill="none" opacity="0.22"></circle><circle r="14.5" cx="726" cy="294" fill="hsl(240, 50%, 50%)" opacity="0.20"></circle><circle r="11" cx="1214" cy="309" fill="hsl(90, 50%, 50%)" opacity="0.31"></circle><circle r="10" cx="780" cy="331" fill="hsl(230, 50%, 50%)" opacity="0.25"></circle><circle r="11.5" cx="325" cy="355" fill="hsl(243, 50%, 50%)" opacity="0.39"></circle><circle r="11" cx="115" cy="230" stroke-width="2" stroke="hsl(279, 50%, 50%)" fill="none" opacity="0.82"></circle><circle r="9.5" cx="794" cy="300" fill="hsl(230, 50%, 50%)" opacity="0.98"></circle><circle r="10" cx="841" cy="776" fill="hsl(221, 50%, 50%)" opacity="0.82"></circle><circle r="25.5" cx="362" cy="756" stroke-width="2" stroke="hsl(238, 50%, 50%)" fill="none" opacity="0.74"></circle><circle r="10.5" cx="761" cy="236" fill="hsl(234, 50%, 50%)" opacity="0.79"></circle><circle r="19" cx="318" cy="691" fill="hsl(243, 50%, 50%)" opacity="0.72"></circle><circle r="11" cx="1331" cy="219" fill="hsl(72, 50%, 50%)" opacity="0.92"></circle><circle r="11.5" cx="1034" cy="541" stroke-width="2" stroke="hsl(153, 50%, 50%)" fill="none" opacity="0.54"></circle><circle r="8" cx="1369" cy="411" stroke-width="2" stroke="hsl(70, 50%, 50%)" fill="none" opacity="0.84"></circle><circle r="18.5" cx="634" cy="378" fill="hsl(245, 50%, 50%)" opacity="0.73"></circle><circle r="17" cx="639" cy="214" stroke-width="2" stroke="hsl(245, 50%, 50%)" fill="none" opacity="0.25"></circle><circle r="13" cx="159" cy="114" stroke-width="2" stroke="hsl(246, 50%, 50%)" fill="none" opacity="0.39"></circle><circle r="14" cx="744" cy="126" fill="hsl(282, 50%, 50%)" opacity="0.83"></circle><circle r="11" cx="1110" cy="230" stroke-width="2" stroke="hsl(126, 50%, 50%)" fill="none" opacity="0.66"></circle><circle r="22.5" cx="38" cy="461" fill="hsl(288, 50%, 50%)" opacity="0.18"></circle><circle r="21" cx="129" cy="480" fill="hsl(279, 50%, 50%)" opacity="0.81"></circle><circle r="13" cx="775" cy="159" fill="hsl(250, 50%, 50%)" opacity="0.34"></circle><circle r="13" cx="926" cy="460" stroke-width="2" stroke="hsl(195, 50%, 50%)" fill="none" opacity="0.23"></circle><circle r="13" cx="835" cy="115" fill="hsl(255, 50%, 50%)" opacity="0.37"></circle><circle r="17" cx="280" cy="33" fill="hsl(199, 50%, 50%)" opacity="0.74"></circle><circle r="8" cx="905" cy="547" stroke-width="2" stroke="hsl(202, 50%, 50%)" fill="none" opacity="0.46"></circle><circle r="18.5" cx="785" cy="702" fill="hsl(230, 50%, 50%)" opacity="0.92"></circle><circle r="11" cx="1176" cy="407" stroke-width="2" stroke="hsl(102, 50%, 50%)" fill="none" opacity="0.75"></circle><circle r="14.5" cx="139" cy="633" fill="hsl(275, 50%, 50%)" opacity="0.78"></circle><circle r="12.5" cx="213" cy="619" fill="hsl(263, 50%, 50%)" opacity="0.89"></circle><circle r="7" cx="1278" cy="285" fill="hsl(76, 50%, 50%)" opacity="0.26"></circle><circle r="14" cx="886" cy="585" stroke-width="2" stroke="hsl(209, 50%, 50%)" fill="none" opacity="0.87"></circle><circle r="11" cx="950" cy="242" stroke-width="2" stroke="hsl(187, 50%, 50%)" fill="none" opacity="0.64"></circle><circle r="13.5" cx="133" cy="179" stroke-width="2" stroke="hsl(279, 50%, 50%)" fill="none" opacity="0.61"></circle><circle r="10.5" cx="1276" cy="129" stroke-width="2" stroke="hsl(72, 50%, 50%)" fill="none" opacity="0.18"></circle><circle r="9.5" cx="972" cy="282" fill="hsl(179, 50%, 50%)" opacity="0.19"></circle><circle r="21.5" cx="365" cy="611" stroke-width="2" stroke="hsl(238, 50%, 50%)" fill="none" opacity="0.37"></circle><circle r="15" cx="631" cy="774" stroke-width="2" stroke="hsl(245, 50%, 50%)" fill="none" opacity="0.69"></circle><circle r="22.5" cx="570" cy="457" fill="hsl(243, 50%, 50%)" opacity="0.20"></circle><circle r="9.5" cx="1105" cy="769" stroke-width="2" stroke="hsl(126, 50%, 50%)" fill="none" opacity="0.95"></circle><circle r="6" cx="1360" cy="762" stroke-width="2" stroke="hsl(70, 50%, 50%)" fill="none" opacity="0.32"></circle><circle r="9.5" cx="1390" cy="81" stroke-width="2" stroke="hsl(84, 50%, 50%)" fill="none" opacity="0.90"></circle><circle r="3.5" cx="1350" cy="790" fill="hsl(71, 50%, 50%)" opacity="0.96"></circle><circle r="10" cx="1094" cy="609" fill="hsl(126, 50%, 50%)" opacity="0.13"></circle><circle r="11" cx="830" cy="171" fill="hsl(234, 50%, 50%)" opacity="0.22"></circle><circle r="12" cx="1055" cy="124" stroke-width="2" stroke="hsl(145, 50%, 50%)" fill="none" opacity="0.56"></circle><circle r="8" cx="1148" cy="780" stroke-width="2" stroke="hsl(110, 50%, 50%)" fill="none" opacity="0.21"></circle><circle r="6" cx="1396" cy="734" stroke-width="2" stroke="hsl(71, 50%, 50%)" fill="none" opacity="0.49"></circle><circle r="15.5" cx="926" cy="43" fill="hsl(217, 50%, 50%)" opacity="0.38"></circle><circle r="14" cx="939" cy="404" fill="hsl(187, 50%, 50%)" opacity="0.45"></circle><circle r="15.5" cx="859" cy="512" stroke-width="2" stroke="hsl(215, 50%, 50%)" fill="none" opacity="0.32"></circle><circle r="14" cx="987" cy="120" stroke-width="2" stroke="hsl(180, 50%, 50%)" fill="none" opacity="0.88"></circle><circle r="10" cx="1392" cy="140" fill="hsl(68, 50%, 50%)" opacity="0.57"></circle><circle r="16" cx="531" cy="288" stroke-width="2" stroke="hsl(240, 50%, 50%)" fill="none" opacity="0.22"></circle><circle r="4" cx="1396" cy="788" fill="hsl(71, 50%, 50%)" opacity="0.99"></circle><circle r="12" cx="75" cy="221" fill="hsl(284, 50%, 50%)" opacity="0.85"></circle><circle r="8.5" cx="1238" cy="769" fill="hsl(85, 50%, 50%)" opacity="0.84"></circle><circle r="17" cx="231" cy="417" stroke-width="2" stroke="hsl(259, 50%, 50%)" fill="none" opacity="0.17"></circle><circle r="8.5" cx="1285" cy="436" fill="hsl(76, 50%, 50%)" opacity="0.30"></circle><circle r="12" cx="961" cy="164" fill="hsl(184, 50%, 50%)" opacity="0.81"></circle><circle r="10.5" cx="1120" cy="664" stroke-width="2" stroke="hsl(118, 50%, 50%)" fill="none" opacity="0.37"></circle><circle r="14.5" cx="502" cy="148" fill="hsl(254, 50%, 50%)" opacity="0.84"></circle><circle r="16.5" cx="407" cy="294" stroke-width="2" stroke="hsl(235, 50%, 50%)" fill="none" opacity="0.64"></circle><circle r="16.5" cx="791" cy="106" stroke-width="2" stroke="hsl(281, 50%, 50%)" fill="none" opacity="0.50"></circle><circle r="7.5" cx="1308" cy="779" fill="hsl(74, 50%, 50%)" opacity="0.89"></circle><circle r="14" cx="952" cy="773" stroke-width="2" stroke="hsl(187, 50%, 50%)" fill="none" opacity="0.61"></circle><circle r="11.5" cx="271" cy="781" fill="hsl(250, 50%, 50%)" opacity="0.40"></circle><circle r="14" cx="877" cy="450" fill="hsl(209, 50%, 50%)" opacity="0.95"></circle><circle r="5.5" cx="1083" cy="76" fill="hsl(134, 50%, 50%)" opacity="0.81"></circle><circle r="8" cx="1152" cy="259" stroke-width="2" stroke="hsl(110, 50%, 50%)" fill="none" opacity="0.96"></circle><circle r="7" cx="1057" cy="782" fill="hsl(144, 50%, 50%)" opacity="0.54"></circle><circle r="13.5" cx="573" cy="319" fill="hsl(243, 50%, 50%)" opacity="0.77"></circle><circle r="10" cx="996" cy="325" fill="hsl(171, 50%, 50%)" opacity="0.17"></circle><circle r="11.5" cx="1030" cy="635" fill="hsl(153, 50%, 50%)" opacity="0.21"></circle><circle r="13" cx="442" cy="154" stroke-width="2" stroke="hsl(240, 50%, 50%)" fill="none" opacity="0.49"></circle><circle r="10.5" cx="1070" cy="503" fill="hsl(135, 50%, 50%)" opacity="0.68"></circle><circle r="6" cx="1405" cy="488" stroke-width="2" stroke="hsl(73, 50%, 50%)" fill="none" opacity="0.84"></circle><circle r="12.5" cx="346" cy="22" fill="hsl(217, 50%, 50%)" opacity="0.92"></circle><circle r="7.5" cx="1166" cy="139" fill="hsl(98, 50%, 50%)" opacity="0.43"></circle><circle r="11.5" cx="525" cy="585" stroke-width="2" stroke="hsl(240, 50%, 50%)" fill="none" opacity="0.74"></circle><circle r="15" cx="97" cy="663" fill="hsl(282, 50%, 50%)" opacity="0.31"></circle><circle r="7" cx="1180" cy="747" stroke-width="2" stroke="hsl(96, 50%, 50%)" fill="none" opacity="0.50"></circle><circle r="10" cx="1068" cy="657" stroke-width="2" stroke="hsl(135, 50%, 50%)" fill="none" opacity="0.51"></circle><circle r="14.5" cx="846" cy="641" fill="hsl(215, 50%, 50%)" opacity="0.13"></circle><circle r="10.5" cx="746" cy="339" stroke-width="2" stroke="hsl(237, 50%, 50%)" fill="none" opacity="0.48"></circle><circle r="14.5" cx="973" cy="637" stroke-width="2" stroke="hsl(179, 50%, 50%)" fill="none" opacity="0.34"></circle><circle r="13" cx="810" cy="360" fill="hsl(226, 50%, 50%)" opacity="0.34"></circle><circle r="13.5" cx="1226" cy="486" stroke-width="2" stroke="hsl(85, 50%, 50%)" fill="none" opacity="0.91"></circle><circle r="8.5" cx="915" cy="501" fill="hsl(195, 50%, 50%)" opacity="0.54"></circle><circle r="20.5" cx="82" cy="537" fill="hsl(284, 50%, 50%)" opacity="0.49"></circle><circle r="13.5" cx="362" cy="67" stroke-width="2" stroke="hsl(228, 50%, 50%)" fill="none" opacity="0.39"></circle><circle r="9" cx="129" cy="18" fill="hsl(180, 50%, 50%)" opacity="0.11"></circle><circle r="14.5" cx="843" cy="403" stroke-width="2" stroke="hsl(221, 50%, 50%)" fill="none" opacity="0.75"></circle><circle r="7" cx="1011" cy="785" stroke-width="2" stroke="hsl(162, 50%, 50%)" fill="none" opacity="0.11"></circle><circle r="12" cx="1250" cy="663" fill="hsl(80, 50%, 50%)" opacity="0.20"></circle><circle r="14.5" cx="817" cy="542" stroke-width="2" stroke="hsl(226, 50%, 50%)" fill="none" opacity="0.76"></circle><circle r="22.5" cx="614" cy="712" fill="hsl(245, 50%, 50%)" opacity="0.58"></circle><circle r="18.5" cx="633" cy="635" fill="hsl(245, 50%, 50%)" opacity="0.72"></circle><circle r="17.5" cx="570" cy="618" stroke-width="2" stroke="hsl(243, 50%, 50%)" fill="none" opacity="0.26"></circle><circle r="6.5" cx="1343" cy="730" stroke-width="2" stroke="hsl(71, 50%, 50%)" fill="none" opacity="0.36"></circle><circle r="7" cx="1134" cy="577" fill="hsl(110, 50%, 50%)" opacity="0.97"></circle><circle r="10.5" cx="1177" cy="657" fill="hsl(102, 50%, 50%)" opacity="0.99"></circle><circle r="13" cx="483" cy="20" fill="hsl(287, 50%, 50%)" opacity="0.55"></circle><circle r="12.5" cx="1050" cy="235" stroke-width="2" stroke="hsl(144, 50%, 50%)" fill="none" opacity="0.49"></circle><circle r="17.5" cx="773" cy="403" stroke-width="2" stroke="hsl(234, 50%, 50%)" fill="none" opacity="0.54"></circle><circle r="11.5" cx="486" cy="76" stroke-width="2" stroke="hsl(269, 50%, 50%)" fill="none" opacity="0.55"></circle><circle r="8" cx="1209" cy="562" stroke-width="2" stroke="hsl(90, 50%, 50%)" fill="none" opacity="0.35"></circle><circle r="13" cx="708" cy="355" fill="hsl(242, 50%, 50%)" opacity="0.53"></circle><circle r="22.5" cx="748" cy="571" stroke-width="2" stroke="hsl(237, 50%, 50%)" fill="none" opacity="0.72"></circle><circle r="8" cx="879" cy="252" fill="hsl(209, 50%, 50%)" opacity="0.33"></circle><circle r="21" cx="289" cy="206" fill="hsl(246, 50%, 50%)" opacity="0.77"></circle><circle r="17" cx="911" cy="118" stroke-width="2" stroke="hsl(215, 50%, 50%)" fill="none" opacity="0.43"></circle><circle r="13" cx="462" cy="287" fill="hsl(236, 50%, 50%)" opacity="0.48"></circle><circle r="13" cx="252" cy="351" fill="hsl(254, 50%, 50%)" opacity="0.16"></circle><circle r="15.5" cx="575" cy="50" fill="hsl(312, 50%, 50%)" opacity="0.66"></circle><circle r="14.5" cx="813" cy="600" stroke-width="2" stroke="hsl(226, 50%, 50%)" fill="none" opacity="0.83"></circle><circle r="18" cx="549" cy="734" stroke-width="2" stroke="hsl(242, 50%, 50%)" fill="none" opacity="0.38"></circle><circle r="15" cx="480" cy="408" fill="hsl(237, 50%, 50%)" opacity="0.83"></circle><circle r="14" cx="466" cy="717" fill="hsl(236, 50%, 50%)" opacity="0.45"></circle><circle r="6.5" cx="1184" cy="17" fill="hsl(104, 50%, 50%)" opacity="0.59"></circle><circle r="14" cx="197" cy="164" stroke-width="2" stroke="hsl(260, 50%, 50%)" fill="none" opacity="0.93"></circle><circle r="8" cx="933" cy="531" fill="hsl(187, 50%, 50%)" opacity="0.50"></circle><circle r="15.5" cx="173" cy="594" stroke-width="2" stroke="hsl(271, 50%, 50%)" fill="none" opacity="0.47"></circle><circle r="13.5" cx="425" cy="517" fill="hsl(235, 50%, 50%)" opacity="0.72"></circle><circle r="13.5" cx="320" cy="90" stroke-width="2" stroke="hsl(223, 50%, 50%)" fill="none" opacity="0.58"></circle><circle r="13.5" cx="994" cy="437" stroke-width="2" stroke="hsl(171, 50%, 50%)" fill="none" opacity="0.34"></circle><circle r="16.5" cx="525" cy="655" fill="hsl(240, 50%, 50%)" opacity="0.11"></circle><circle r="6" cx="1194" cy="785" stroke-width="2" stroke="hsl(96, 50%, 50%)" fill="none" opacity="0.92"></circle><circle r="8" cx="1318" cy="304" fill="hsl(72, 50%, 50%)" opacity="0.83"></circle><circle r="21" cx="746" cy="495" stroke-width="2" stroke="hsl(237, 50%, 50%)" fill="none" opacity="0.39"></circle><circle r="16.5" cx="61" cy="355" stroke-width="2" stroke="hsl(286, 50%, 50%)" fill="none" opacity="0.54"></circle><circle r="16" cx="20" cy="721" fill="hsl(288, 50%, 50%)" opacity="0.96"></circle><circle r="15.5" cx="715" cy="22" stroke-width="2" stroke="hsl(325, 50%, 50%)" fill="none" opacity="0.52"></circle><circle r="15.5" cx="983" cy="39" fill="hsl(176, 50%, 50%)" opacity="0.18"></circle><circle r="19" cx="157" cy="305" stroke-width="2" stroke="hsl(271, 50%, 50%)" fill="none" opacity="0.24"></circle><circle r="8.5" cx="1067" cy="748" stroke-width="2" stroke="hsl(135, 50%, 50%)" fill="none" opacity="0.65"></circle><circle r="10.5" cx="530" cy="546" fill="hsl(240, 50%, 50%)" opacity="0.89"></circle><circle r="16" cx="537" cy="214" stroke-width="2" stroke="hsl(242, 50%, 50%)" fill="none" opacity="0.90"></circle><circle r="19" cx="184" cy="376" stroke-width="2" stroke="hsl(267, 50%, 50%)" fill="none" opacity="0.25"></circle><circle r="12" cx="277" cy="659" fill="hsl(250, 50%, 50%)" opacity="0.35"></circle><circle r="9" cx="1233" cy="239" fill="hsl(85, 50%, 50%)" opacity="0.23"></circle><circle r="10" cx="1235" cy="413" stroke-width="2" stroke="hsl(85, 50%, 50%)" fill="none" opacity="0.61"></circle><circle r="12" cx="686" cy="277" stroke-width="2" stroke="hsl(244, 50%, 50%)" fill="none" opacity="0.81"></circle><circle r="11" cx="1102" cy="352" stroke-width="2" stroke="hsl(126, 50%, 50%)" fill="none" opacity="0.24"></circle><circle r="11" cx="290" cy="366" fill="hsl(246, 50%, 50%)" opacity="0.98"></circle><circle r="14" cx="448" cy="446" fill="hsl(236, 50%, 50%)" opacity="0.37"></circle><circle r="15" cx="882" cy="371" fill="hsl(209, 50%, 50%)" opacity="0.63"></circle><circle r="16.5" cx="464" cy="343" stroke-width="2" stroke="hsl(236, 50%, 50%)" fill="none" opacity="0.66"></circle><circle r="15" cx="478" cy="774" stroke-width="2" stroke="hsl(237, 50%, 50%)" fill="none" opacity="0.44"></circle><circle r="19.5" cx="31" cy="156" fill="hsl(281, 50%, 50%)" opacity="0.33"></circle><circle r="7.5" cx="1320" cy="349" stroke-width="2" stroke="hsl(72, 50%, 50%)" fill="none" opacity="0.15"></circle><circle r="18" cx="715" cy="87" stroke-width="2" stroke="hsl(309, 50%, 50%)" fill="none" opacity="0.23"></circle><circle r="18" cx="198" cy="536" stroke-width="2" stroke="hsl(267, 50%, 50%)" fill="none" opacity="0.59"></circle><circle r="13" cx="120" cy="134" fill="hsl(263, 50%, 50%)" opacity="0.33"></circle><circle r="11.5" cx="700" cy="780" stroke-width="2" stroke="hsl(242, 50%, 50%)" fill="none" opacity="0.44"></circle><circle r="18.5" cx="688" cy="609" fill="hsl(244, 50%, 50%)" opacity="0.28"></circle><circle r="23" cx="298" cy="580" stroke-width="2" stroke="hsl(246, 50%, 50%)" fill="none" opacity="0.59"></circle><circle r="15.5" cx="869" cy="32" fill="hsl(245, 50%, 50%)" opacity="0.65"></circle><circle r="11.5" cx="784" cy="261" fill="hsl(230, 50%, 50%)" opacity="0.18"></circle><circle r="14" cx="112" cy="776" fill="hsl(279, 50%, 50%)" opacity="0.80"></circle><circle r="8.5" cx="1124" cy="20" fill="hsl(117, 50%, 50%)" opacity="0.23"></circle><circle r="13.5" cx="127" cy="269" fill="hsl(279, 50%, 50%)" opacity="0.18"></circle><circle r="15" cx="282" cy="434" stroke-width="2" stroke="hsl(250, 50%, 50%)" fill="none" opacity="0.64"></circle><circle r="10" cx="1084" cy="563" fill="hsl(135, 50%, 50%)" opacity="0.32"></circle><circle r="14" cx="521" cy="497" fill="hsl(240, 50%, 50%)" opacity="0.96"></circle><circle r="10" cx="242" cy="641" stroke-width="2" stroke="hsl(259, 50%, 50%)" fill="none" opacity="0.20"></circle><circle r="12.5" cx="794" cy="773" fill="hsl(230, 50%, 50%)" opacity="0.22"></circle><circle r="19" cx="114" cy="354" fill="hsl(279, 50%, 50%)" opacity="0.58"></circle><circle r="9.5" cx="403" cy="49" fill="hsl(244, 50%, 50%)" opacity="0.41"></circle><circle r="21" cx="807" cy="461" stroke-width="2" stroke="hsl(226, 50%, 50%)" fill="none" opacity="0.12"></circle><circle r="13" cx="1083" cy="407" fill="hsl(135, 50%, 50%)" opacity="0.41"></circle><circle r="12" cx="231" cy="112" stroke-width="2" stroke="hsl(235, 50%, 50%)" fill="none" opacity="0.93"></circle><circle r="13.5" cx="481" cy="543" stroke-width="2" stroke="hsl(237, 50%, 50%)" fill="none" opacity="0.42"></circle><circle r="12" cx="647" cy="279" stroke-width="2" stroke="hsl(245, 50%, 50%)" fill="none" opacity="0.24"></circle><circle r="10" cx="1335" cy="141" stroke-width="2" stroke="hsl(66, 50%, 50%)" fill="none" opacity="0.97"></circle><circle r="15.5" cx="677" cy="48" stroke-width="2" stroke="hsl(325, 50%, 50%)" fill="none" opacity="0.17"></circle><circle r="13.5" cx="569" cy="179" stroke-width="2" stroke="hsl(243, 50%, 50%)" fill="none" opacity="0.57"></circle><circle r="18.5" cx="31" cy="222" fill="hsl(288, 50%, 50%)" opacity="0.47"></circle><circle r="11.5" cx="999" cy="571" fill="hsl(171, 50%, 50%)" opacity="0.22"></circle><circle r="9.5" cx="913" cy="261" fill="hsl(195, 50%, 50%)" opacity="0.73"></circle><circle r="16" cx="1061" cy="299" stroke-width="2" stroke="hsl(144, 50%, 50%)" fill="none" opacity="0.12"></circle><circle r="13" cx="901" cy="318" fill="hsl(202, 50%, 50%)" opacity="0.53"></circle><circle r="14" cx="952" cy="716" stroke-width="2" stroke="hsl(187, 50%, 50%)" fill="none" opacity="0.70"></circle><circle r="16" cx="37" cy="396" fill="hsl(288, 50%, 50%)" opacity="0.97"></circle><circle r="10.5" cx="400" cy="424" stroke-width="2" stroke="hsl(235, 50%, 50%)" fill="none" opacity="0.34"></circle><circle r="13.5" cx="373" cy="117" fill="hsl(231, 50%, 50%)" opacity="0.46"></circle><circle r="16" cx="130" cy="568" fill="hsl(279, 50%, 50%)" opacity="0.74"></circle><circle r="5" cx="1059" cy="76" fill="hsl(145, 50%, 50%)" opacity="0.89"></circle><circle r="17.5" cx="244" cy="505" fill="hsl(259, 50%, 50%)" opacity="0.99"></circle><circle r="8.5" cx="957" cy="363" fill="hsl(179, 50%, 50%)" opacity="0.32"></circle><circle r="16.5" cx="348" cy="501" fill="hsl(240, 50%, 50%)" opacity="0.74"></circle><circle r="13" cx="898" cy="706" fill="hsl(202, 50%, 50%)" opacity="0.27"></circle><circle r="23" cx="41" cy="297" stroke-width="2" stroke="hsl(288, 50%, 50%)" fill="none" opacity="0.22"></circle><circle r="8" cx="1187" cy="240" fill="hsl(96, 50%, 50%)" opacity="0.72"></circle><circle r="15.5" cx="710" cy="164" stroke-width="2" stroke="hsl(259, 50%, 50%)" fill="none" opacity="0.69"></circle><circle r="10.5" cx="1072" cy="704" stroke-width="2" stroke="hsl(135, 50%, 50%)" fill="none" opacity="0.75"></circle><circle r="16" cx="412" cy="566" fill="hsl(235, 50%, 50%)" opacity="0.42"></circle><circle r="9" cx="820" cy="258" fill="hsl(226, 50%, 50%)" opacity="0.80"></circle><circle r="10" cx="1240" cy="603" stroke-width="2" stroke="hsl(85, 50%, 50%)" fill="none" opacity="0.49"></circle><circle r="12" cx="949" cy="570" stroke-width="2" stroke="hsl(187, 50%, 50%)" fill="none" opacity="0.38"></circle><circle r="8.5" cx="1075" cy="178" stroke-width="2" stroke="hsl(134, 50%, 50%)" fill="none" opacity="0.93"></circle><circle r="18" cx="30" cy="658" fill="hsl(288, 50%, 50%)" opacity="0.27"></circle><circle r="17" cx="547" cy="126" fill="hsl(274, 50%, 50%)" opacity="0.94"></circle><circle r="14" cx="396" cy="477" stroke-width="2" stroke="hsl(236, 50%, 50%)" fill="none" opacity="0.50"></circle><circle r="12.5" cx="199" cy="74" fill="hsl(219, 50%, 50%)" opacity="0.77"></circle><circle r="9.5" cx="406" cy="16" stroke-width="2" stroke="hsl(248, 50%, 50%)" fill="none" opacity="0.59"></circle><circle r="14.5" cx="695" cy="444" fill="hsl(242, 50%, 50%)" opacity="0.61"></circle><circle r="18" cx="45" cy="772" stroke-width="2" stroke="hsl(286, 50%, 50%)" fill="none" opacity="0.78"></circle><circle r="7.5" cx="1259" cy="338" stroke-width="2" stroke="hsl(80, 50%, 50%)" fill="none" opacity="0.64"></circle><circle r="10" cx="94" cy="180" stroke-width="2" stroke="hsl(282, 50%, 50%)" fill="none" opacity="0.29"></circle><circle r="10.5" cx="1275" cy="734" stroke-width="2" stroke="hsl(76, 50%, 50%)" fill="none" opacity="0.74"></circle><circle r="17" cx="138" cy="421" fill="hsl(275, 50%, 50%)" opacity="0.51"></circle><circle r="22" cx="670" cy="534" stroke-width="2" stroke="hsl(244, 50%, 50%)" fill="none" opacity="0.70"></circle><circle r="14" cx="485" cy="245" fill="hsl(237, 50%, 50%)" opacity="0.65"></circle><circle r="10.5" cx="1024" cy="74" fill="hsl(156, 50%, 50%)" opacity="0.28"></circle><circle r="19" cx="639" cy="466" stroke-width="2" stroke="hsl(245, 50%, 50%)" fill="none" opacity="0.44"></circle><circle r="10" cx="1114" cy="167" fill="hsl(115, 50%, 50%)" opacity="0.25"></circle><circle r="13" cx="445" cy="53" stroke-width="2" stroke="hsl(265, 50%, 50%)" fill="none" opacity="0.40"></circle><circle r="14" cx="270" cy="97" stroke-width="2" stroke="hsl(222, 50%, 50%)" fill="none" opacity="0.23"></circle><circle r="10.5" cx="1120" cy="115" stroke-width="2" stroke="hsl(114, 50%, 50%)" fill="none" opacity="1.00"></circle><circle r="14.5" cx="976" cy="499" stroke-width="2" stroke="hsl(179, 50%, 50%)" fill="none" opacity="0.33"></circle><circle r="8" cx="1159" cy="612" stroke-width="2" stroke="hsl(102, 50%, 50%)" fill="none" opacity="0.26"></circle><circle r="13.5" cx="923" cy="653" stroke-width="2" stroke="hsl(195, 50%, 50%)" fill="none" opacity="0.60"></circle><circle r="10" cx="1350" cy="513" fill="hsl(71, 50%, 50%)" opacity="0.96"></circle><circle r="12.5" cx="1330" cy="53" stroke-width="2" stroke="hsl(86, 50%, 50%)" fill="none" opacity="0.74"></circle><circle r="13.5" cx="97" cy="48" stroke-width="2" stroke="hsl(213, 50%, 50%)" fill="none" opacity="0.56"></circle><circle r="15.5" cx="706" cy="222" fill="hsl(242, 50%, 50%)" opacity="0.36"></circle><circle r="12" cx="948" cy="318" fill="hsl(187, 50%, 50%)" opacity="0.15"></circle><circle r="8.5" cx="837" cy="297" fill="hsl(221, 50%, 50%)" opacity="0.50"></circle><circle r="8.5" cx="810" cy="13" fill="hsl(282, 50%, 50%)" opacity="0.74"></circle><circle r="13" cx="330" cy="409" fill="hsl(243, 50%, 50%)" opacity="0.29"></circle><circle r="12.5" cx="621" cy="326" fill="hsl(245, 50%, 50%)" opacity="0.42"></circle><circle r="19" cx="698" cy="720" stroke-width="2" stroke="hsl(242, 50%, 50%)" fill="none" opacity="0.39"></circle><circle r="17" cx="419" cy="221" fill="hsl(235, 50%, 50%)" opacity="0.27"></circle><circle r="10.5" cx="1117" cy="514" stroke-width="2" stroke="hsl(118, 50%, 50%)" fill="none" opacity="0.34"></circle><circle r="10" cx="1393" cy="216" fill="hsl(71, 50%, 50%)" opacity="0.81"></circle><circle r="16.5" cx="79" cy="107" stroke-width="2" stroke="hsl(244, 50%, 50%)" fill="none" opacity="0.53"></circle><circle r="11.5" cx="868" cy="151" fill="hsl(229, 50%, 50%)" opacity="0.13"></circle><circle r="8.5" cx="1155" cy="361" fill="hsl(102, 50%, 50%)" opacity="0.58"></circle><circle r="11.5" cx="809" cy="205" stroke-width="2" stroke="hsl(226, 50%, 50%)" fill="none" opacity="0.52"></circle><circle r="15" cx="35" cy="28" stroke-width="2" stroke="hsl(198, 50%, 50%)" fill="none" opacity="0.75"></circle><circle r="15.5" cx="349" cy="259" stroke-width="2" stroke="hsl(240, 50%, 50%)" fill="none" opacity="0.63"></circle><circle r="12.5" cx="185" cy="32" fill="hsl(194, 50%, 50%)" opacity="0.97"></circle><circle r="9.5" cx="1190" cy="96" fill="hsl(92, 50%, 50%)" opacity="0.59"></circle><circle r="10.5" cx="847" cy="234" stroke-width="2" stroke="hsl(215, 50%, 50%)" fill="none" opacity="0.30"></circle><circle r="12.5" cx="376" cy="363" stroke-width="2" stroke="hsl(238, 50%, 50%)" fill="none" opacity="0.76"></circle><circle r="4.5" cx="1404" cy="763" fill="hsl(73, 50%, 50%)" opacity="0.66"></circle><circle r="18" cx="76" cy="710" fill="hsl(284, 50%, 50%)" opacity="0.11"></circle><circle r="15" cx="24" cy="87" fill="hsl(231, 50%, 50%)" opacity="0.77"></circle><circle r="10" cx="412" cy="85" fill="hsl(242, 50%, 50%)" opacity="0.75"></circle><circle r="17.5" cx="215" cy="315" stroke-width="2" stroke="hsl(263, 50%, 50%)" fill="none" opacity="0.29"></circle><circle r="11" cx="1002" cy="256" stroke-width="2" stroke="hsl(162, 50%, 50%)" fill="none" opacity="0.12"></circle><circle r="14.5" cx="879" cy="758" stroke-width="2" stroke="hsl(209, 50%, 50%)" fill="none" opacity="0.72"></circle><circle r="11" cx="755" cy="196" fill="hsl(237, 50%, 50%)" opacity="0.27"></circle><circle r="17.5" cx="79" cy="610" fill="hsl(284, 50%, 50%)" opacity="0.93"></circle><circle r="13" cx="461" cy="668" stroke-width="2" stroke="hsl(236, 50%, 50%)" fill="none" opacity="0.73"></circle><circle r="13.5" cx="1023" cy="367" fill="hsl(153, 50%, 50%)" opacity="0.21"></circle><circle r="8.5" cx="1393" cy="691" stroke-width="2" stroke="hsl(71, 50%, 50%)" fill="none" opacity="0.59"></circle><circle r="15" cx="340" cy="157" stroke-width="2" stroke="hsl(236, 50%, 50%)" fill="none" opacity="0.71"></circle><circle r="14.5" cx="303" cy="306" fill="hsl(246, 50%, 50%)" opacity="0.15"></circle><circle r="9.5" cx="1234" cy="165" fill="hsl(81, 50%, 50%)" opacity="0.20"></circle><circle r="15" cx="237" cy="749" fill="hsl(259, 50%, 50%)" opacity="0.12"></circle><circle r="18.5" cx="206" cy="700" stroke-width="2" stroke="hsl(263, 50%, 50%)" fill="none" opacity="0.69"></circle><circle r="15.5" cx="265" cy="279" stroke-width="2" stroke="hsl(254, 50%, 50%)" fill="none" opacity="0.61"></circle><circle r="18" cx="29" cy="600" fill="hsl(288, 50%, 50%)" opacity="0.25"></circle><circle r="12.5" cx="1046" cy="458" stroke-width="2" stroke="hsl(144, 50%, 50%)" fill="none" opacity="0.67"></circle><circle r="10" cx="848" cy="330" stroke-width="2" stroke="hsl(215, 50%, 50%)" fill="none" opacity="0.76"></circle><circle r="16.5" cx="409" cy="667" stroke-width="2" stroke="hsl(235, 50%, 50%)" fill="none" opacity="0.54"></circle><circle r="10.5" cx="1031" cy="177" stroke-width="2" stroke="hsl(154, 50%, 50%)" fill="none" opacity="0.98"></circle><circle r="18.5" cx="468" cy="601" stroke-width="2" stroke="hsl(237, 50%, 50%)" fill="none" opacity="0.94"></circle><circle r="9.5" cx="1054" cy="22" stroke-width="2" stroke="hsl(140, 50%, 50%)" fill="none" opacity="0.10"></circle><circle r="8.5" cx="1216" cy="360" stroke-width="2" stroke="hsl(90, 50%, 50%)" fill="none" opacity="0.94"></circle><circle r="7.5" cx="1318" cy="462" stroke-width="2" stroke="hsl(72, 50%, 50%)" fill="none" opacity="0.27"></circle><circle r="10" cx="1140" cy="304" stroke-width="2" stroke="hsl(110, 50%, 50%)" fill="none" opacity="0.86"></circle><circle r="13" cx="612" cy="92" fill="hsl(300, 50%, 50%)" opacity="0.15"></circle><circle r="13.5" cx="749" cy="764" fill="hsl(237, 50%, 50%)" opacity="0.51"></circle><circle r="13.5" cx="641" cy="48" stroke-width="2" stroke="hsl(325, 50%, 50%)" fill="none" opacity="0.24"></circle><circle r="9" cx="1322" cy="650" fill="hsl(72, 50%, 50%)" opacity="0.20"></circle><circle r="13" cx="354" cy="211" fill="hsl(240, 50%, 50%)" opacity="0.69"></circle><circle r="7.5" cx="864" cy="283" fill="hsl(215, 50%, 50%)" opacity="0.57"></circle><circle r="11.5" cx="363" cy="431" stroke-width="2" stroke="hsl(238, 50%, 50%)" fill="none" opacity="0.55"></circle><circle r="17.5" cx="231" cy="235" fill="hsl(259, 50%, 50%)" opacity="0.47"></circle><circle r="11" cx="601" cy="127" fill="hsl(287, 50%, 50%)" opacity="0.44"></circle><circle r="19" cx="769" cy="41" fill="hsl(306, 50%, 50%)" opacity="0.19"></circle><circle r="12" cx="474" cy="484" stroke-width="2" stroke="hsl(237, 50%, 50%)" fill="none" opacity="0.57"></circle><circle r="15" cx="846" cy="695" stroke-width="2" stroke="hsl(215, 50%, 50%)" fill="none" opacity="0.62"></circle><circle r="11" cx="467" cy="108" stroke-width="2" stroke="hsl(262, 50%, 50%)" fill="none" opacity="0.17"></circle><circle r="17" cx="150" cy="687" stroke-width="2" stroke="hsl(275, 50%, 50%)" fill="none" opacity="0.48"></circle><circle r="14.5" cx="615" cy="167" stroke-width="2" stroke="hsl(259, 50%, 50%)" fill="none" opacity="0.62"></circle><circle r="14.5" cx="417" cy="383" stroke-width="2" stroke="hsl(235, 50%, 50%)" fill="none" opacity="0.78"></circle><circle r="7" cx="1158" cy="554" fill="hsl(102, 50%, 50%)" opacity="0.83"></circle><circle r="12" cx="707" cy="401" stroke-width="2" stroke="hsl(242, 50%, 50%)" fill="none" opacity="0.59"></circle><circle r="20.5" cx="597" cy="548" fill="hsl(244, 50%, 50%)" opacity="0.84"></circle><circle r="15.5" cx="353" cy="317" stroke-width="2" stroke="hsl(240, 50%, 50%)" fill="none" opacity="0.20"></circle><circle r="7.5" cx="1290" cy="377" stroke-width="2" stroke="hsl(74, 50%, 50%)" fill="none" opacity="0.48"></circle><circle r="15" cx="1012" cy="729" stroke-width="2" stroke="hsl(162, 50%, 50%)" fill="none" opacity="0.93"></circle><circle r="22" cx="540" cy="379" fill="hsl(242, 50%, 50%)" opacity="0.74"></circle><circle r="10" cx="1173" cy="183" stroke-width="2" stroke="hsl(102, 50%, 50%)" fill="none" opacity="0.28"></circle><circle r="21" cx="158" cy="756" stroke-width="2" stroke="hsl(271, 50%, 50%)" fill="none" opacity="0.66"></circle><circle r="9.5" cx="1177" cy="516" fill="hsl(102, 50%, 50%)" opacity="0.27"></circle><circle r="11" cx="1328" cy="593" fill="hsl(72, 50%, 50%)" opacity="0.12"></circle><circle r="7" cx="1319" cy="697" fill="hsl(72, 50%, 50%)" opacity="0.38"></circle><circle r="15" cx="296" cy="490" stroke-width="2" stroke="hsl(246, 50%, 50%)" fill="none" opacity="0.48"></circle><circle r="11.5" cx="1388" cy="563" stroke-width="2" stroke="hsl(71, 50%, 50%)" fill="none" opacity="0.47"></circle><circle r="8.5" cx="1114" cy="61" fill="hsl(116, 50%, 50%)" opacity="0.72"></circle><circle r="10" cx="1203" cy="708" fill="hsl(90, 50%, 50%)" opacity="0.29"></circle><circle r="13" cx="1380" cy="294" fill="hsl(71, 50%, 50%)" opacity="0.59"></circle><circle r="7" cx="1174" cy="54" fill="hsl(102, 50%, 50%)" opacity="0.22"></circle><circle r="20.5" cx="732" cy="656" stroke-width="2" stroke="hsl(240, 50%, 50%)" fill="none" opacity="0.31"></circle><circle r="10.5" cx="1392" cy="633" fill="hsl(71, 50%, 50%)" opacity="0.64"></circle><circle r="8" cx="1283" cy="237" fill="hsl(76, 50%, 50%)" opacity="0.61"></circle><circle r="10" cx="421" cy="119" stroke-width="2" stroke="hsl(238, 50%, 50%)" fill="none" opacity="0.26"></circle><circle r="14" cx="1283" cy="534" stroke-width="2" stroke="hsl(76, 50%, 50%)" fill="none" opacity="0.91"></circle><circle r="12" cx="883" cy="195" fill="hsl(209, 50%, 50%)" opacity="0.74"></circle><circle r="13.5" cx="1143" cy="460" stroke-width="2" stroke="hsl(110, 50%, 50%)" fill="none" opacity="0.73"></circle><circle r="10.5" cx="1136" cy="723" stroke-width="2" stroke="hsl(110, 50%, 50%)" fill="none" opacity="0.42"></circle><circle r="8" cx="1233" cy="43" stroke-width="2" stroke="hsl(95, 50%, 50%)" fill="none" opacity="0.11"></circle><circle r="10.5" cx="593" cy="15" fill="hsl(333, 50%, 50%)" opacity="0.76"></circle><circle r="15" cx="290" cy="144" fill="hsl(234, 50%, 50%)" opacity="0.57"></circle><circle r="11" cx="997" cy="206" stroke-width="2" stroke="hsl(171, 50%, 50%)" fill="none" opacity="0.19"></circle><circle r="17" cx="594" cy="253" stroke-width="2" stroke="hsl(244, 50%, 50%)" fill="none" opacity="0.37"></circle><circle r="15.5" cx="186" cy="216" fill="hsl(267, 50%, 50%)" opacity="0.91"></circle><circle r="17.5" cx="26" cy="534" stroke-width="2" stroke="hsl(288, 50%, 50%)" fill="none" opacity="0.84"></circle><circle r="9" cx="1279" cy="38" stroke-width="2" stroke="hsl(93, 50%, 50%)" fill="none" opacity="0.94"></circle><circle r="10.5" cx="1390" cy="363" fill="hsl(71, 50%, 50%)" opacity="0.21"></circle></svg>