<svg xmlns="http://www.w3.org/2000/svg" version="1.1" xmlns:xlink="http://www.w3.org/1999/xlink" xmlns:svgjs="http://svgjs.dev/svgjs" viewBox="0 0 1422 800"><circle r="7" cx="471" cy="206" fill="hsl(76, 50%, 50%)" opacity="0.52"></circle><circle r="15.5" cx="210" cy="553" stroke-width="2" stroke="hsl(155, 50%, 50%)" fill="none" opacity="0.96"></circle><circle r="18.5" cx="778" cy="547" stroke-width="2" stroke="hsl(152, 50%, 50%)" fill="none" opacity="0.66"></circle><circle r="11" cx="163" cy="89" fill="hsl(139, 50%, 50%)" opacity="0.71"></circle><circle r="7.5" cx="636" cy="268" stroke-width="2" stroke="hsl(101, 50%, 50%)" fill="none" opacity="0.26"></circle><circle r="11" cx="1101" cy="411" stroke-width="2" stroke="hsl(137, 50%, 50%)" fill="none" opacity="0.72"></circle><circle r="13" cx="1047" cy="553" stroke-width="2" stroke="hsl(155, 50%, 50%)" fill="none" opacity="1.00"></circle><circle r="8.5" cx="658" cy="604" stroke-width="2" stroke="hsl(108, 50%, 50%)" fill="none" opacity="0.52"></circle><circle r="11" cx="523" cy="641" fill="hsl(78, 50%, 50%)" opacity="0.17"></circle><circle r="11" cx="1066" cy="178" stroke-width="2" stroke="hsl(155, 50%, 50%)" fill="none" opacity="0.39"></circle><circle r="10" cx="178" cy="709" stroke-width="2" stroke="hsl(168, 50%, 50%)" fill="none" opacity="0.99"></circle><circle r="7" cx="669" cy="286" fill="hsl(116, 50%, 50%)" opacity="0.39"></circle><circle r="4.5" cx="438" cy="788" stroke-width="2" stroke="hsl(78, 50%, 50%)" fill="none" opacity="0.68"></circle><circle r="14.5" cx="777" cy="60" fill="hsl(165, 50%, 50%)" opacity="0.66"></circle><circle r="11" cx="1154" cy="359" stroke-width="2" stroke="hsl(119, 50%, 50%)" fill="none" opacity="1.00"></circle><circle r="12" cx="567" cy="116" fill="hsl(96, 50%, 50%)" opacity="0.96"></circle><circle r="9" cx="1397" cy="715" fill="hsl(71, 50%, 50%)" opacity="0.23"></circle><circle r="12.5" cx="95" cy="39" fill="hsl(130, 50%, 50%)" opacity="0.62"></circle><circle r="12" cx="1116" cy="81" fill="hsl(160, 50%, 50%)" opacity="0.34"></circle><circle r="17.5" cx="28" cy="250" fill="hsl(274, 50%, 50%)" opacity="0.80"></circle><circle r="6.5" cx="318" cy="90" fill="hsl(92, 50%, 50%)" opacity="0.90"></circle><circle r="12" cx="729" cy="131" fill="hsl(140, 50%, 50%)" opacity="0.93"></circle><circle r="10.5" cx="890" cy="257" stroke-width="2" stroke="hsl(186, 50%, 50%)" fill="none" opacity="0.49"></circle><circle r="10" cx="682" cy="348" stroke-width="2" stroke="hsl(116, 50%, 50%)" fill="none" opacity="0.31"></circle><circle r="10" cx="607" cy="531" stroke-width="2" stroke="hsl(95, 50%, 50%)" fill="none" opacity="0.50"></circle><circle r="13" cx="148" cy="761" stroke-width="2" stroke="hsl(198, 50%, 50%)" fill="none" opacity="0.77"></circle><circle r="12.5" cx="1127" cy="558" fill="hsl(128, 50%, 50%)" opacity="0.19"></circle><circle r="7.5" cx="698" cy="727" stroke-width="2" stroke="hsl(125, 50%, 50%)" fill="none" opacity="0.84"></circle><circle r="18" cx="322" cy="436" fill="hsl(101, 50%, 50%)" opacity="0.83"></circle><circle r="10.5" cx="1307" cy="665" fill="hsl(74, 50%, 50%)" opacity="0.18"></circle><circle r="14" cx="898" cy="738" fill="hsl(186, 50%, 50%)" opacity="0.33"></circle><circle r="10" cx="278" cy="694" fill="hsl(119, 50%, 50%)" opacity="0.39"></circle><circle r="10" cx="752" cy="777" fill="hsl(143, 50%, 50%)" opacity="0.38"></circle><circle r="10" cx="397" cy="283" stroke-width="2" stroke="hsl(83, 50%, 50%)" fill="none" opacity="0.39"></circle><circle r="9" cx="1186" cy="573" fill="hsl(102, 50%, 50%)" opacity="0.84"></circle><circle r="10" cx="980" cy="545" fill="hsl(177, 50%, 50%)" opacity="0.78"></circle><circle r="7.5" cx="806" cy="15" stroke-width="2" stroke="hsl(191, 50%, 50%)" fill="none" opacity="0.72"></circle><circle r="11" cx="1112" cy="468" fill="hsl(128, 50%, 50%)" opacity="0.69"></circle><circle r="7" cx="1402" cy="75" fill="hsl(82, 50%, 50%)" opacity="0.35"></circle><circle r="10" cx="1296" cy="286" stroke-width="2" stroke="hsl(74, 50%, 50%)" fill="none" opacity="0.97"></circle><circle r="14" cx="611" cy="460" fill="hsl(95, 50%, 50%)" opacity="0.41"></circle><circle r="9.5" cx="1378" cy="773" stroke-width="2" stroke="hsl(71, 50%, 50%)" fill="none" opacity="0.31"></circle><circle r="10" cx="1189" cy="139" fill="hsl(104, 50%, 50%)" opacity="0.93"></circle><circle r="7" cx="346" cy="60" fill="hsl(77, 50%, 50%)" opacity="0.76"></circle><circle r="8" cx="1165" cy="273" stroke-width="2" stroke="hsl(110, 50%, 50%)" fill="none" opacity="0.26"></circle><circle r="8.5" cx="443" cy="679" fill="hsl(78, 50%, 50%)" opacity="0.28"></circle><circle r="9" cx="523" cy="308" fill="hsl(78, 50%, 50%)" opacity="0.90"></circle><circle r="8.5" cx="896" cy="783" stroke-width="2" stroke="hsl(186, 50%, 50%)" fill="none" opacity="0.65"></circle><circle r="15" cx="940" cy="112" fill="hsl(202, 50%, 50%)" opacity="0.87"></circle><circle r="12" cx="1388" cy="562" fill="hsl(71, 50%, 50%)" opacity="0.84"></circle><circle r="13.5" cx="831" cy="252" stroke-width="2" stroke="hsl(175, 50%, 50%)" fill="none" opacity="0.24"></circle><circle r="8.5" cx="843" cy="37" fill="hsl(200, 50%, 50%)" opacity="0.96"></circle><circle r="8" cx="1397" cy="404" fill="hsl(71, 50%, 50%)" opacity="0.72"></circle><circle r="10.5" cx="1257" cy="490" fill="hsl(82, 50%, 50%)" opacity="0.81"></circle><circle r="11.5" cx="883" cy="20" fill="hsl(224, 50%, 50%)" opacity="0.43"></circle><circle r="14.5" cx="343" cy="351" fill="hsl(94, 50%, 50%)" opacity="0.26"></circle><circle r="14.5" cx="142" cy="237" stroke-width="2" stroke="hsl(198, 50%, 50%)" fill="none" opacity="0.59"></circle><circle r="6.5" cx="374" cy="103" fill="hsl(88, 50%, 50%)" opacity="0.88"></circle><circle r="11" cx="1073" cy="89" stroke-width="2" stroke="hsl(183, 50%, 50%)" fill="none" opacity="0.40"></circle><circle r="9.5" cx="155" cy="674" fill="hsl(198, 50%, 50%)" opacity="0.56"></circle><circle r="17.5" cx="199" cy="425" stroke-width="2" stroke="hsl(168, 50%, 50%)" fill="none" opacity="0.97"></circle><circle r="13" cx="246" cy="229" fill="hsl(130, 50%, 50%)" opacity="0.59"></circle><circle r="10.5" cx="545" cy="500" stroke-width="2" stroke="hsl(81, 50%, 50%)" fill="none" opacity="0.23"></circle><circle r="18.5" cx="260" cy="491" fill="hsl(130, 50%, 50%)" opacity="0.27"></circle><circle r="12" cx="1296" cy="540" fill="hsl(74, 50%, 50%)" opacity="0.18"></circle><circle r="8" cx="69" cy="637" stroke-width="2" stroke="hsl(245, 50%, 50%)" fill="none" opacity="0.49"></circle><circle r="14" cx="717" cy="518" stroke-width="2" stroke="hsl(134, 50%, 50%)" fill="none" opacity="0.68"></circle><circle r="14.5" cx="249" cy="762" stroke-width="2" stroke="hsl(130, 50%, 50%)" fill="none" opacity="0.42"></circle><circle r="7" cx="686" cy="695" fill="hsl(116, 50%, 50%)" opacity="0.48"></circle><circle r="8" cx="282" cy="23" stroke-width="2" stroke="hsl(69, 50%, 50%)" fill="none" opacity="0.56"></circle><circle r="21" cx="57" cy="195" fill="hsl(260, 50%, 50%)" opacity="0.15"></circle><circle r="16" cx="940" cy="415" stroke-width="2" stroke="hsl(184, 50%, 50%)" fill="none" opacity="0.36"></circle><circle r="7.5" cx="601" cy="641" fill="hsl(95, 50%, 50%)" opacity="0.35"></circle><circle r="7.5" cx="1401" cy="490" fill="hsl(73, 50%, 50%)" opacity="0.58"></circle><circle r="7" cx="452" cy="731" stroke-width="2" stroke="hsl(76, 50%, 50%)" fill="none" opacity="0.52"></circle><circle r="12.5" cx="131" cy="154" fill="hsl(193, 50%, 50%)" opacity="0.51"></circle><circle r="13" cx="928" cy="669" fill="hsl(186, 50%, 50%)" opacity="0.97"></circle><circle r="10" cx="659" cy="543" fill="hsl(108, 50%, 50%)" opacity="0.22"></circle><circle r="11.5" cx="196" cy="766" stroke-width="2" stroke="hsl(168, 50%, 50%)" fill="none" opacity="0.75"></circle><circle r="11" cx="1289" cy="766" stroke-width="2" stroke="hsl(77, 50%, 50%)" fill="none" opacity="0.42"></circle><circle r="14.5" cx="692" cy="455" fill="hsl(125, 50%, 50%)" opacity="0.58"></circle><circle r="9" cx="624" cy="23" fill="hsl(109, 50%, 50%)" opacity="0.80"></circle><circle r="13" cx="1065" cy="767" stroke-width="2" stroke="hsl(155, 50%, 50%)" fill="none" opacity="0.39"></circle><circle r="9" cx="1223" cy="178" stroke-width="2" stroke="hsl(87, 50%, 50%)" fill="none" opacity="0.63"></circle><circle r="10" cx="440" cy="558" fill="hsl(78, 50%, 50%)" opacity="0.82"></circle><circle r="10.5" cx="533" cy="372" stroke-width="2" stroke="hsl(81, 50%, 50%)" fill="none" opacity="0.34"></circle><circle r="12" cx="1196" cy="460" fill="hsl(102, 50%, 50%)" opacity="0.86"></circle><circle r="13.5" cx="739" cy="661" stroke-width="2" stroke="hsl(143, 50%, 50%)" fill="none" opacity="0.50"></circle><circle r="6.5" cx="1308" cy="467" stroke-width="2" stroke="hsl(74, 50%, 50%)" fill="none" opacity="0.66"></circle><circle r="18" cx="832" cy="403" fill="hsl(175, 50%, 50%)" opacity="0.37"></circle><circle r="13.5" cx="1128" cy="27" fill="hsl(184, 50%, 50%)" opacity="0.81"></circle><circle r="9" cx="381" cy="158" fill="hsl(87, 50%, 50%)" opacity="0.56"></circle><circle r="10.5" cx="568" cy="286" fill="hsl(85, 50%, 50%)" opacity="0.79"></circle><circle r="9" cx="444" cy="499" stroke-width="2" stroke="hsl(78, 50%, 50%)" fill="none" opacity="0.52"></circle><circle r="11" cx="691" cy="771" fill="hsl(125, 50%, 50%)" opacity="0.52"></circle><circle r="10" cx="944" cy="780" stroke-width="2" stroke="hsl(184, 50%, 50%)" fill="none" opacity="0.93"></circle><circle r="17.5" cx="26" cy="139" fill="hsl(256, 50%, 50%)" opacity="0.83"></circle><circle r="11" cx="37" cy="320" stroke-width="2" stroke="hsl(274, 50%, 50%)" fill="none" opacity="0.34"></circle><circle r="13.5" cx="831" cy="772" fill="hsl(175, 50%, 50%)" opacity="0.67"></circle><circle r="17.5" cx="159" cy="302" fill="hsl(183, 50%, 50%)" opacity="0.56"></circle><circle r="7.5" cx="144" cy="44" fill="hsl(104, 50%, 50%)" opacity="0.92"></circle><circle r="6" cx="1396" cy="446" fill="hsl(71, 50%, 50%)" opacity="0.60"></circle><circle r="9.5" cx="595" cy="239" fill="hsl(89, 50%, 50%)" opacity="0.52"></circle><circle r="11.5" cx="1103" cy="689" fill="hsl(137, 50%, 50%)" opacity="0.81"></circle><circle r="8.5" cx="833" cy="69" fill="hsl(193, 50%, 50%)" opacity="0.97"></circle><circle r="10" cx="998" cy="708" fill="hsl(177, 50%, 50%)" opacity="0.98"></circle><circle r="7" cx="660" cy="165" fill="hsl(111, 50%, 50%)" opacity="0.18"></circle><circle r="8" cx="1203" cy="331" stroke-width="2" stroke="hsl(94, 50%, 50%)" fill="none" opacity="0.83"></circle><circle r="14.5" cx="376" cy="513" stroke-width="2" stroke="hsl(88, 50%, 50%)" fill="none" opacity="0.55"></circle><circle r="11.5" cx="892" cy="559" stroke-width="2" stroke="hsl(186, 50%, 50%)" fill="none" opacity="0.55"></circle><circle r="11" cx="1259" cy="232" stroke-width="2" stroke="hsl(82, 50%, 50%)" fill="none" opacity="0.25"></circle><circle r="12" cx="933" cy="539" stroke-width="2" stroke="hsl(184, 50%, 50%)" fill="none" opacity="0.83"></circle><circle r="16" cx="819" cy="328" stroke-width="2" stroke="hsl(168, 50%, 50%)" fill="none" opacity="0.39"></circle><circle r="13.5" cx="830" cy="655" fill="hsl(175, 50%, 50%)" opacity="0.52"></circle><circle r="12.5" cx="332" cy="580" stroke-width="2" stroke="hsl(101, 50%, 50%)" fill="none" opacity="0.41"></circle><circle r="8.5" cx="261" cy="66" fill="hsl(83, 50%, 50%)" opacity="0.66"></circle><circle r="10.5" cx="1012" cy="511" fill="hsl(171, 50%, 50%)" opacity="0.71"></circle><circle r="6.5" cx="350" cy="21" fill="hsl(61, 50%, 50%)" opacity="0.93"></circle><circle r="13.5" cx="723" cy="43" fill="hsl(143, 50%, 50%)" opacity="0.79"></circle><circle r="8" cx="1205" cy="252" stroke-width="2" stroke="hsl(94, 50%, 50%)" fill="none" opacity="0.62"></circle><circle r="15.5" cx="889" cy="374" fill="hsl(186, 50%, 50%)" opacity="0.91"></circle><circle r="6.5" cx="1393" cy="119" stroke-width="2" stroke="hsl(68, 50%, 50%)" fill="none" opacity="0.33"></circle><circle r="7.5" cx="448" cy="240" stroke-width="2" stroke="hsl(76, 50%, 50%)" fill="none" opacity="0.92"></circle><circle r="8" cx="433" cy="312" stroke-width="2" stroke="hsl(78, 50%, 50%)" fill="none" opacity="0.36"></circle><circle r="9" cx="1069" cy="136" fill="hsl(156, 50%, 50%)" opacity="0.86"></circle><circle r="8" cx="475" cy="336" fill="hsl(76, 50%, 50%)" opacity="0.52"></circle><circle r="15" cx="30" cy="425" fill="hsl(274, 50%, 50%)" opacity="0.74"></circle><circle r="9.5" cx="1174" cy="87" fill="hsl(136, 50%, 50%)" opacity="0.36"></circle><circle r="14" cx="859" cy="703" fill="hsl(180, 50%, 50%)" opacity="0.95"></circle><circle r="11.5" cx="1152" cy="420" stroke-width="2" stroke="hsl(119, 50%, 50%)" fill="none" opacity="0.17"></circle><circle r="7.5" cx="1235" cy="112" fill="hsl(90, 50%, 50%)" opacity="0.91"></circle><circle r="13.5" cx="1006" cy="601" fill="hsl(171, 50%, 50%)" opacity="0.58"></circle><circle r="10.5" cx="120" cy="666" fill="hsl(214, 50%, 50%)" opacity="0.76"></circle><circle r="10" cx="1330" cy="718" fill="hsl(72, 50%, 50%)" opacity="0.25"></circle><circle r="8" cx="318" cy="138" fill="hsl(101, 50%, 50%)" opacity="0.67"></circle><circle r="10" cx="511" cy="27" fill="hsl(87, 50%, 50%)" opacity="0.95"></circle><circle r="11" cx="339" cy="276" stroke-width="2" stroke="hsl(94, 50%, 50%)" fill="none" opacity="0.23"></circle><circle r="14" cx="1003" cy="772" stroke-width="2" stroke="hsl(171, 50%, 50%)" fill="none" opacity="0.46"></circle><circle r="10" cx="1353" cy="507" stroke-width="2" stroke="hsl(70, 50%, 50%)" fill="none" opacity="0.56"></circle><circle r="7.5" cx="952" cy="352" fill="hsl(184, 50%, 50%)" opacity="0.39"></circle><circle r="8.5" cx="902" cy="603" fill="hsl(186, 50%, 50%)" opacity="0.25"></circle><circle r="16" cx="930" cy="477" fill="hsl(186, 50%, 50%)" opacity="0.77"></circle><circle r="8.5" cx="1344" cy="412" stroke-width="2" stroke="hsl(70, 50%, 50%)" fill="none" opacity="0.26"></circle><circle r="11.5" cx="619" cy="698" fill="hsl(95, 50%, 50%)" opacity="0.88"></circle><circle r="13" cx="234" cy="625" fill="hsl(142, 50%, 50%)" opacity="0.76"></circle><circle r="9.5" cx="1351" cy="298" fill="hsl(70, 50%, 50%)" opacity="0.36"></circle><circle r="15" cx="959" cy="214" fill="hsl(181, 50%, 50%)" opacity="0.22"></circle><circle r="5.5" cx="347" cy="177" fill="hsl(96, 50%, 50%)" opacity="0.80"></circle><circle r="9.5" cx="643" cy="203" fill="hsl(101, 50%, 50%)" opacity="0.11"></circle><circle r="9.5" cx="247" cy="173" fill="hsl(126, 50%, 50%)" opacity="0.31"></circle><circle r="5.5" cx="412" cy="725" fill="hsl(80, 50%, 50%)" opacity="0.20"></circle><circle r="10" cx="1382" cy="351" stroke-width="2" stroke="hsl(71, 50%, 50%)" fill="none" opacity="0.22"></circle><circle r="11.5" cx="136" cy="410" stroke-width="2" stroke="hsl(198, 50%, 50%)" fill="none" opacity="0.18"></circle><circle r="9" cx="203" cy="112" fill="hsl(130, 50%, 50%)" opacity="0.28"></circle><circle r="10" cx="956" cy="585" stroke-width="2" stroke="hsl(181, 50%, 50%)" fill="none" opacity="0.39"></circle><circle r="9" cx="240" cy="130" fill="hsl(121, 50%, 50%)" opacity="0.82"></circle><circle r="9.5" cx="658" cy="124" stroke-width="2" stroke="hsl(116, 50%, 50%)" fill="none" opacity="0.88"></circle><circle r="5" cx="393" cy="756" stroke-width="2" stroke="hsl(83, 50%, 50%)" fill="none" opacity="0.12"></circle><circle r="7.5" cx="1401" cy="165" stroke-width="2" stroke="hsl(69, 50%, 50%)" fill="none" opacity="0.27"></circle><circle r="7" cx="1289" cy="430" fill="hsl(74, 50%, 50%)" opacity="0.90"></circle><circle r="11.5" cx="1324" cy="218" fill="hsl(72, 50%, 50%)" opacity="0.92"></circle><circle r="9" cx="695" cy="259" fill="hsl(125, 50%, 50%)" opacity="0.68"></circle><circle r="9" cx="314" cy="776" stroke-width="2" stroke="hsl(101, 50%, 50%)" fill="none" opacity="0.53"></circle><circle r="15" cx="994" cy="462" stroke-width="2" stroke="hsl(177, 50%, 50%)" fill="none" opacity="0.36"></circle><circle r="8" cx="1232" cy="369" fill="hsl(87, 50%, 50%)" opacity="0.90"></circle><circle r="9" cx="1010" cy="333" stroke-width="2" stroke="hsl(171, 50%, 50%)" fill="none" opacity="0.80"></circle><circle r="11" cx="538" cy="209" stroke-width="2" stroke="hsl(81, 50%, 50%)" fill="none" opacity="0.68"></circle><circle r="7" cx="526" cy="570" stroke-width="2" stroke="hsl(78, 50%, 50%)" fill="none" opacity="0.86"></circle><circle r="10.5" cx="397" cy="214" fill="hsl(83, 50%, 50%)" opacity="0.76"></circle><circle r="8" cx="284" cy="109" fill="hsl(100, 50%, 50%)" opacity="0.92"></circle><circle r="15.5" cx="847" cy="113" fill="hsl(192, 50%, 50%)" opacity="0.62"></circle><circle r="14.5" cx="845" cy="580" fill="hsl(180, 50%, 50%)" opacity="0.51"></circle><circle r="13" cx="954" cy="734" fill="hsl(184, 50%, 50%)" opacity="0.46"></circle><circle r="15.5" cx="101" cy="602" fill="hsl(229, 50%, 50%)" opacity="0.91"></circle><circle r="6.5" cx="1281" cy="341" fill="hsl(77, 50%, 50%)" opacity="0.60"></circle><circle r="7" cx="1252" cy="436" fill="hsl(82, 50%, 50%)" opacity="0.77"></circle><circle r="8.5" cx="678" cy="655" fill="hsl(116, 50%, 50%)" opacity="0.71"></circle><circle r="9.5" cx="1376" cy="25" fill="hsl(101, 50%, 50%)" opacity="0.45"></circle><circle r="13" cx="1241" cy="677" fill="hsl(87, 50%, 50%)" opacity="0.36"></circle><circle r="9" cx="1196" cy="399" stroke-width="2" stroke="hsl(102, 50%, 50%)" fill="none" opacity="0.29"></circle><circle r="8" cx="345" cy="218" fill="hsl(94, 50%, 50%)" opacity="0.29"></circle><circle r="16.5" cx="775" cy="721" stroke-width="2" stroke="hsl(152, 50%, 50%)" fill="none" opacity="0.70"></circle><circle r="6.5" cx="1271" cy="118" fill="hsl(76, 50%, 50%)" opacity="0.82"></circle><circle r="15" cx="180" cy="192" stroke-width="2" stroke="hsl(168, 50%, 50%)" fill="none" opacity="0.88"></circle><circle r="8" cx="1085" cy="332" fill="hsl(147, 50%, 50%)" opacity="0.96"></circle><circle r="13.5" cx="1002" cy="65" fill="hsl(219, 50%, 50%)" opacity="0.52"></circle><circle r="13" cx="1255" cy="600" fill="hsl(82, 50%, 50%)" opacity="0.35"></circle><circle r="12.5" cx="33" cy="360" stroke-width="2" stroke="hsl(274, 50%, 50%)" fill="none" opacity="0.87"></circle><circle r="10.5" cx="16" cy="636" fill="hsl(288, 50%, 50%)" opacity="0.69"></circle><circle r="12" cx="609" cy="81" fill="hsl(106, 50%, 50%)" opacity="0.90"></circle><circle r="7" cx="477" cy="273" stroke-width="2" stroke="hsl(76, 50%, 50%)" fill="none" opacity="0.52"></circle><circle r="10" cx="563" cy="421" stroke-width="2" stroke="hsl(85, 50%, 50%)" fill="none" opacity="0.44"></circle><circle r="11" cx="357" cy="656" stroke-width="2" stroke="hsl(88, 50%, 50%)" fill="none" opacity="0.35"></circle><circle r="7.5" cx="429" cy="356" fill="hsl(78, 50%, 50%)" opacity="0.86"></circle><circle r="8.5" cx="1272" cy="174" stroke-width="2" stroke="hsl(74, 50%, 50%)" fill="none" opacity="0.27"></circle><circle r="12.5" cx="1128" cy="771" stroke-width="2" stroke="hsl(128, 50%, 50%)" fill="none" opacity="0.53"></circle><circle r="11" cx="663" cy="397" stroke-width="2" stroke="hsl(108, 50%, 50%)" fill="none" opacity="0.36"></circle><circle r="20" cx="862" cy="496" stroke-width="2" stroke="hsl(180, 50%, 50%)" fill="none" opacity="0.76"></circle><circle r="12" cx="25" cy="742" fill="hsl(274, 50%, 50%)" opacity="0.74"></circle><circle r="10.5" cx="920" cy="337" stroke-width="2" stroke="hsl(186, 50%, 50%)" fill="none" opacity="0.84"></circle><circle r="11" cx="389" cy="400" stroke-width="2" stroke="hsl(83, 50%, 50%)" fill="none" opacity="0.18"></circle><circle r="10.5" cx="595" cy="176" stroke-width="2" stroke="hsl(94, 50%, 50%)" fill="none" opacity="0.36"></circle><circle r="14.5" cx="21" cy="687" fill="hsl(288, 50%, 50%)" opacity="0.99"></circle><circle r="12" cx="1157" cy="501" stroke-width="2" stroke="hsl(110, 50%, 50%)" fill="none" opacity="0.53"></circle><circle r="9" cx="427" cy="55" fill="hsl(81, 50%, 50%)" opacity="0.60"></circle><circle r="21" cx="37" cy="564" stroke-width="2" stroke="hsl(274, 50%, 50%)" fill="none" opacity="0.12"></circle><circle r="11" cx="912" cy="219" fill="hsl(186, 50%, 50%)" opacity="0.64"></circle><circle r="8.5" cx="979" cy="361" stroke-width="2" stroke="hsl(177, 50%, 50%)" fill="none" opacity="0.53"></circle><circle r="10" cx="1039" cy="416" stroke-width="2" stroke="hsl(163, 50%, 50%)" fill="none" opacity="0.34"></circle><circle r="7.5" cx="561" cy="551" fill="hsl(85, 50%, 50%)" opacity="0.99"></circle><circle r="15.5" cx="1206" cy="39" fill="hsl(138, 50%, 50%)" opacity="0.71"></circle><circle r="13.5" cx="549" cy="704" fill="hsl(81, 50%, 50%)" opacity="0.80"></circle><circle r="16" cx="160" cy="587" fill="hsl(183, 50%, 50%)" opacity="0.87"></circle><circle r="12.5" cx="1215" cy="768" stroke-width="2" stroke="hsl(94, 50%, 50%)" fill="none" opacity="0.15"></circle><circle r="14.5" cx="769" cy="279" fill="hsl(152, 50%, 50%)" opacity="0.59"></circle><circle r="7.5" cx="383" cy="698" stroke-width="2" stroke="hsl(83, 50%, 50%)" fill="none" opacity="0.89"></circle><circle r="18" cx="35" cy="56" fill="hsl(197, 50%, 50%)" opacity="0.66"></circle><circle r="13" cx="1056" cy="463" fill="hsl(155, 50%, 50%)" opacity="0.96"></circle><circle r="5" cx="480" cy="785" stroke-width="2" stroke="hsl(76, 50%, 50%)" fill="none" opacity="0.11"></circle><circle r="12" cx="1040" cy="646" stroke-width="2" stroke="hsl(163, 50%, 50%)" fill="none" opacity="0.76"></circle><circle r="7" cx="638" cy="649" fill="hsl(101, 50%, 50%)" opacity="0.29"></circle><circle r="9" cx="500" cy="468" stroke-width="2" stroke="hsl(77, 50%, 50%)" fill="none" opacity="0.42"></circle><circle r="9" cx="300" cy="237" fill="hsl(109, 50%, 50%)" opacity="0.50"></circle><circle r="9" cx="303" cy="730" fill="hsl(109, 50%, 50%)" opacity="0.95"></circle><circle r="16" cx="272" cy="299" fill="hsl(119, 50%, 50%)" opacity="0.78"></circle><circle r="12" cx="60" cy="390" fill="hsl(260, 50%, 50%)" opacity="0.31"></circle><circle r="15" cx="896" cy="74" fill="hsl(213, 50%, 50%)" opacity="0.44"></circle><circle r="9" cx="458" cy="633" stroke-width="2" stroke="hsl(76, 50%, 50%)" fill="none" opacity="0.37"></circle><circle r="11.5" cx="509" cy="87" fill="hsl(90, 50%, 50%)" opacity="0.50"></circle><circle r="10.5" cx="76" cy="782" fill="hsl(245, 50%, 50%)" opacity="0.21"></circle><circle r="14.5" cx="1018" cy="210" stroke-width="2" stroke="hsl(171, 50%, 50%)" fill="none" opacity="0.85"></circle><circle r="8.5" cx="1192" cy="209" stroke-width="2" stroke="hsl(102, 50%, 50%)" fill="none" opacity="0.75"></circle><circle r="10.5" cx="1217" cy="532" stroke-width="2" stroke="hsl(94, 50%, 50%)" fill="none" opacity="0.98"></circle><circle r="9.5" cx="40" cy="612" stroke-width="2" stroke="hsl(274, 50%, 50%)" fill="none" opacity="0.90"></circle><circle r="10" cx="1181" cy="726" fill="hsl(102, 50%, 50%)" opacity="0.78"></circle><circle r="17" cx="775" cy="441" stroke-width="2" stroke="hsl(152, 50%, 50%)" fill="none" opacity="0.62"></circle><circle r="15" cx="735" cy="330" fill="hsl(143, 50%, 50%)" opacity="0.54"></circle><circle r="12" cx="1135" cy="135" stroke-width="2" stroke="hsl(124, 50%, 50%)" fill="none" opacity="0.66"></circle><circle r="5" cx="350" cy="123" fill="hsl(94, 50%, 50%)" opacity="0.56"></circle><circle r="7.5" cx="1232" cy="286" stroke-width="2" stroke="hsl(87, 50%, 50%)" fill="none" opacity="0.48"></circle><circle r="8.5" cx="484" cy="588" stroke-width="2" stroke="hsl(76, 50%, 50%)" fill="none" opacity="0.10"></circle><circle r="11" cx="94" cy="414" fill="hsl(229, 50%, 50%)" opacity="0.28"></circle><circle r="7" cx="455" cy="449" stroke-width="2" stroke="hsl(76, 50%, 50%)" fill="none" opacity="0.66"></circle><circle r="9.5" cx="215" cy="39" stroke-width="2" stroke="hsl(79, 50%, 50%)" fill="none" opacity="0.12"></circle><circle r="5" cx="1233" cy="412" fill="hsl(87, 50%, 50%)" opacity="0.58"></circle><circle r="8" cx="12" cy="302" stroke-width="2" stroke="hsl(288, 50%, 50%)" fill="none" opacity="0.66"></circle><circle r="13" cx="613" cy="338" stroke-width="2" stroke="hsl(95, 50%, 50%)" fill="none" opacity="0.76"></circle><circle r="10.5" cx="89" cy="694" stroke-width="2" stroke="hsl(245, 50%, 50%)" fill="none" opacity="0.88"></circle><circle r="8.5" cx="1302" cy="92" fill="hsl(77, 50%, 50%)" opacity="0.32"></circle><circle r="5.5" cx="403" cy="784" fill="hsl(80, 50%, 50%)" opacity="0.88"></circle><circle r="14.5" cx="1090" cy="608" fill="hsl(137, 50%, 50%)" opacity="0.77"></circle><circle r="4" cx="445" cy="763" stroke-width="2" stroke="hsl(76, 50%, 50%)" fill="none" opacity="0.20"></circle><circle r="11.5" cx="292" cy="641" fill="hsl(109, 50%, 50%)" opacity="0.44"></circle><circle r="11" cx="968" cy="40" fill="hsl(235, 50%, 50%)" opacity="0.25"></circle><circle r="10.5" cx="931" cy="28" fill="hsl(231, 50%, 50%)" opacity="0.42"></circle><circle r="9" cx="410" cy="453" fill="hsl(80, 50%, 50%)" opacity="0.87"></circle><circle r="11" cx="277" cy="564" stroke-width="2" stroke="hsl(119, 50%, 50%)" fill="none" opacity="1.00"></circle><circle r="12" cx="1087" cy="517" fill="hsl(147, 50%, 50%)" opacity="0.78"></circle><circle r="13.5" cx="103" cy="749" stroke-width="2" stroke="hsl(229, 50%, 50%)" fill="none" opacity="0.68"></circle><circle r="16" cx="1048" cy="29" stroke-width="2" stroke="hsl(216, 50%, 50%)" fill="none" opacity="0.27"></circle><circle r="5.5" cx="368" cy="738" stroke-width="2" stroke="hsl(88, 50%, 50%)" fill="none" opacity="0.90"></circle><circle r="20.5" cx="33" cy="489" fill="hsl(274, 50%, 50%)" opacity="0.69"></circle><circle r="9.5" cx="1395" cy="271" fill="hsl(71, 50%, 50%)" opacity="0.83"></circle><circle r="11" cx="671" cy="68" fill="hsl(125, 50%, 50%)" opacity="0.97"></circle><circle r="7.5" cx="1315" cy="153" stroke-width="2" stroke="hsl(67, 50%, 50%)" fill="none" opacity="0.94"></circle><circle r="9.5" cx="1346" cy="74" fill="hsl(79, 50%, 50%)" opacity="0.37"></circle><circle r="8.5" cx="934" cy="626" stroke-width="2" stroke="hsl(184, 50%, 50%)" fill="none" opacity="0.69"></circle><circle r="7" cx="1347" cy="458" stroke-width="2" stroke="hsl(70, 50%, 50%)" fill="none" opacity="0.46"></circle><circle r="11" cx="787" cy="221" stroke-width="2" stroke="hsl(161, 50%, 50%)" fill="none" opacity="0.13"></circle><circle r="9.5" cx="1389" cy="213" stroke-width="2" stroke="hsl(71, 50%, 50%)" fill="none" opacity="0.43"></circle><circle r="12" cx="912" cy="156" fill="hsl(191, 50%, 50%)" opacity="0.66"></circle><circle r="9" cx="1043" cy="725" fill="hsl(163, 50%, 50%)" opacity="0.70"></circle><circle r="7" cx="444" cy="396" fill="hsl(78, 50%, 50%)" opacity="0.12"></circle><circle r="10" cx="443" cy="143" stroke-width="2" stroke="hsl(86, 50%, 50%)" fill="none" opacity="0.85"></circle><circle r="5.5" cx="413" cy="16" stroke-width="2" stroke="hsl(68, 50%, 50%)" fill="none" opacity="0.10"></circle><circle r="10" cx="1009" cy="387" stroke-width="2" stroke="hsl(171, 50%, 50%)" fill="none" opacity="0.12"></circle><circle r="10" cx="1307" cy="374" fill="hsl(74, 50%, 50%)" opacity="0.73"></circle><circle r="12" cx="1388" cy="646" fill="hsl(71, 50%, 50%)" opacity="0.28"></circle><circle r="7.5" cx="363" cy="780" fill="hsl(88, 50%, 50%)" opacity="0.15"></circle><circle r="15" cx="784" cy="136" fill="hsl(166, 50%, 50%)" opacity="0.68"></circle><circle r="8" cx="1356" cy="146" stroke-width="2" stroke="hsl(65, 50%, 50%)" fill="none" opacity="0.36"></circle><circle r="12.5" cx="1283" cy="31" fill="hsl(113, 50%, 50%)" opacity="0.46"></circle><circle r="5.5" cx="604" cy="578" fill="hsl(95, 50%, 50%)" opacity="0.23"></circle><circle r="14" cx="869" cy="188" fill="hsl(184, 50%, 50%)" opacity="0.90"></circle><circle r="14.5" cx="1068" cy="242" stroke-width="2" stroke="hsl(147, 50%, 50%)" fill="none" opacity="0.79"></circle><circle r="10" cx="977" cy="674" stroke-width="2" stroke="hsl(181, 50%, 50%)" fill="none" opacity="0.16"></circle><circle r="11" cx="501" cy="159" fill="hsl(82, 50%, 50%)" opacity="0.48"></circle><circle r="13.5" cx="709" cy="601" fill="hsl(125, 50%, 50%)" opacity="0.77"></circle><circle r="9" cx="1048" cy="333" fill="hsl(155, 50%, 50%)" opacity="0.53"></circle><circle r="13.5" cx="215" cy="681" stroke-width="2" stroke="hsl(155, 50%, 50%)" fill="none" opacity="0.98"></circle><circle r="12.5" cx="57" cy="719" fill="hsl(260, 50%, 50%)" opacity="0.67"></circle><circle r="12" cx="1331" cy="604" stroke-width="2" stroke="hsl(72, 50%, 50%)" fill="none" opacity="0.70"></circle><circle r="12.5" cx="395" cy="597" fill="hsl(83, 50%, 50%)" opacity="0.68"></circle><circle r="11" cx="737" cy="220" fill="hsl(143, 50%, 50%)" opacity="0.65"></circle><circle r="12.5" cx="936" cy="292" fill="hsl(184, 50%, 50%)" opacity="0.58"></circle><circle r="9.5" cx="305" cy="182" fill="hsl(109, 50%, 50%)" opacity="0.30"></circle><circle r="13.5" cx="986" cy="266" stroke-width="2" stroke="hsl(177, 50%, 50%)" fill="none" opacity="0.48"></circle><circle r="7" cx="1122" cy="333" fill="hsl(128, 50%, 50%)" opacity="0.66"></circle><circle r="17.5" cx="231" cy="355" stroke-width="2" stroke="hsl(142, 50%, 50%)" fill="none" opacity="0.60"></circle><circle r="8.5" cx="695" cy="205" fill="hsl(125, 50%, 50%)" opacity="0.89"></circle><circle r="12.5" cx="878" cy="302" stroke-width="2" stroke="hsl(184, 50%, 50%)" fill="none" opacity="0.64"></circle><circle r="9" cx="1100" cy="291" fill="hsl(137, 50%, 50%)" opacity="0.99"></circle><circle r="8.5" cx="487" cy="414" stroke-width="2" stroke="hsl(76, 50%, 50%)" fill="none" opacity="0.35"></circle><circle r="6.5" cx="704" cy="165" fill="hsl(127, 50%, 50%)" opacity="0.55"></circle><circle r="12" cx="21" cy="781" fill="hsl(288, 50%, 50%)" opacity="0.21"></circle><circle r="19.5" cx="104" cy="518" stroke-width="2" stroke="hsl(229, 50%, 50%)" fill="none" opacity="0.84"></circle><circle r="14.5" cx="989" cy="154" stroke-width="2" stroke="hsl(188, 50%, 50%)" fill="none" opacity="0.11"></circle><circle r="9" cx="569" cy="611" stroke-width="2" stroke="hsl(85, 50%, 50%)" fill="none" opacity="0.81"></circle><circle r="10" cx="1156" cy="683" fill="hsl(110, 50%, 50%)" opacity="0.24"></circle><circle r="9" cx="976" cy="312" fill="hsl(181, 50%, 50%)" opacity="1.00"></circle><circle r="6" cx="619" cy="600" stroke-width="2" stroke="hsl(95, 50%, 50%)" fill="none" opacity="0.48"></circle><circle r="16.5" cx="145" cy="475" stroke-width="2" stroke="hsl(198, 50%, 50%)" fill="none" opacity="0.97"></circle><circle r="7.5" cx="339" cy="718" stroke-width="2" stroke="hsl(94, 50%, 50%)" fill="none" opacity="0.11"></circle><circle r="10" cx="1128" cy="255" stroke-width="2" stroke="hsl(128, 50%, 50%)" fill="none" opacity="0.91"></circle><circle r="12" cx="1019" cy="109" stroke-width="2" stroke="hsl(199, 50%, 50%)" fill="none" opacity="0.69"></circle><circle r="6.5" cx="1173" cy="309" fill="hsl(110, 50%, 50%)" opacity="0.11"></circle><circle r="6" cx="169" cy="16" fill="hsl(79, 50%, 50%)" opacity="0.25"></circle><circle r="13" cx="819" cy="181" stroke-width="2" stroke="hsl(168, 50%, 50%)" fill="none" opacity="0.30"></circle><circle r="14.5" cx="1133" cy="196" fill="hsl(128, 50%, 50%)" opacity="0.69"></circle><circle r="11.5" cx="1037" cy="289" fill="hsl(163, 50%, 50%)" opacity="0.72"></circle><circle r="9.5" cx="1073" cy="374" fill="hsl(147, 50%, 50%)" opacity="0.42"></circle><circle r="19" cx="79" cy="278" fill="hsl(245, 50%, 50%)" opacity="0.81"></circle><circle r="10" cx="520" cy="758" stroke-width="2" stroke="hsl(78, 50%, 50%)" fill="none" opacity="0.26"></circle><circle r="13" cx="618" cy="766" stroke-width="2" stroke="hsl(95, 50%, 50%)" fill="none" opacity="0.60"></circle><circle r="8" cx="1048" cy="689" fill="hsl(155, 50%, 50%)" opacity="0.39"></circle><circle r="9.5" cx="488" cy="528" stroke-width="2" stroke="hsl(76, 50%, 50%)" fill="none" opacity="0.27"></circle><circle r="13.5" cx="784" cy="617" stroke-width="2" stroke="hsl(161, 50%, 50%)" fill="none" opacity="0.74"></circle><circle r="12" cx="1170" cy="625" stroke-width="2" stroke="hsl(110, 50%, 50%)" fill="none" opacity="0.58"></circle><circle r="14" cx="95" cy="118" stroke-width="2" stroke="hsl(195, 50%, 50%)" fill="none" opacity="0.60"></circle><circle r="15.5" cx="108" cy="345" fill="hsl(229, 50%, 50%)" opacity="0.98"></circle><circle r="7.5" cx="420" cy="101" stroke-width="2" stroke="hsl(87, 50%, 50%)" fill="none" opacity="0.13"></circle><circle r="6" cx="1246" cy="322" fill="hsl(82, 50%, 50%)" opacity="0.52"></circle><circle r="9" cx="58" cy="664" stroke-width="2" stroke="hsl(260, 50%, 50%)" fill="none" opacity="0.22"></circle></svg>